<svg xmlns="http://www.w3.org/2000/svg" xmlns:xlink="http://www.w3.org/1999/xlink" viewBox="0 0 1366 349.67"><defs><style>.cls-1,.cls-2{fill:none;}.cls-2,.cls-6{stroke:#74abde;}.cls-2{stroke-linecap:round;stroke-linejoin:round;stroke-width:4px;}.cls-3{clip-path:url(#clip-path);}.cls-4{fill:#fff;}.cls-5{fill:#74abde;}.cls-6{stroke-miterlimit:10;fill:url(#New_Pattern_2);}</style><clipPath id="clip-path" transform="translate(0 -115.73)"><rect class="cls-1" width="1366" height="463.41"/></clipPath><pattern id="New_Pattern_2" data-name="New Pattern 2" width="247.02" height="234.19" patternTransform="translate(-92.42 -114.47) scale(0.16)" patternUnits="userSpaceOnUse" viewBox="0 0 247.02 234.19"><rect class="cls-1" width="247.02" height="234.19"/><circle class="cls-2" cx="185.27" cy="234.19" r="40.52"/><circle class="cls-2" cx="61.76" cy="234.19" r="40.52"/><circle class="cls-2" cx="247.02" cy="117.09" r="40.52"/><circle class="cls-2" cx="123.51" cy="117.09" r="40.52"/><circle class="cls-2" cy="117.09" r="40.52"/><circle class="cls-2" cx="185.27" r="40.52"/><circle class="cls-2" cx="61.76" r="40.52"/></pattern></defs><title>Asset 6_main</title><g id="Layer_2" data-name="Layer 2"><g id="Volume_Homes" data-name="Volume Homes"><g class="cls-3"><g id="Argentina"><polygon class="cls-4" points="33.98 347.68 50.84 297.5 105.81 239.47 151.23 188.03 223.83 157.56 241.25 119.24 258.68 111.57 279 49.7 318.19 22.67 367.56 49.7 400.95 34.93 407.73 2.23 439.68 22.67 439.68 49.7 460.97 76.82 472.58 151.43 493.88 151.43 493.88 96.75 542.75 49.7 559.68 76.82 579.03 76.82 599.61 115.37 667.35 115.37 695.04 134.13 734.88 114.63 742.34 71.72 772.63 64.06 779.89 33.39 819.1 64.06 843.77 41.06 888.78 57.92 927.99 33.39 964.27 59.46 1015.09 60.98 1028.17 76.82 1065.9 76.82 1144.32 151.43 1161.73 198.69 1228.35 255.94 1244.36 255.94 1329.85 347.68 33.98 347.68"/><g id="Argentina_Base" data-name="Argentina Base"><polygon class="cls-5" points="1366 347.68 1195.25 348.65 1024.5 349.21 683 349.67 341.5 349.21 170.75 348.66 85.38 348.21 0 347.68 85.38 347.15 170.75 346.69 341.5 346.14 683 345.68 1024.5 346.14 1195.25 346.7 1366 347.68"/><path class="cls-5" d="M34.5,461.84l7.84-24.42L50.25,413l0-.13.1-.1,27.18-29.3,27.29-29.19.22-.23.32-.11L161,335.17l55.67-18.55,55.66-18.55,27.84-9.27L328,279.65l.82-.27.74.42,38.58,22-.91-.24,44.56.1h.62l.48.39,27,22.06,27,22.13c18,14.78,36,29.47,53.89,44.32l.25.2.05.29,7,35.36q3.55,17.69,7,35.39-4-17.59-7.89-35.19l-7.81-35.21.3.49c-18.24-14.43-36.36-29-54.54-43.51l-27.26-21.78-27.19-21.85,1.09.38-44.56.1h-.48l-.43-.24-38.67-21.87,1.56.16-27.83,9.27-27.87,9.16-55.74,18.31L162,338.36l-55.83,18.07.54-.34L79.08,384.92,51.3,413.65l.14-.23L43,437.64Z" transform="translate(0 -115.73)"/><path class="cls-5" d="M105.81,355.19c3.68-4.37,7.33-8.78,11-13.12L128,329l11.12-13.06,11.18-13,.18-.2.28-.13L186.87,287l36.21-15.45-1,1,17.34-38.36.32-.69.7-.31,17.43-7.63-1.07,1.18,10.26-30.9,10.36-30.87.18-.54.45-.31,19.74-13.32,19.77-13.26.58-.39.59.33c8.17,4.6,16.29,9.3,24.44,14l12.21,7,12.18,7.07L355.05,159l-12.47-6.52c-8.31-4.36-16.64-8.67-24.92-13.08l1.16-.06L299.4,153.08l-19.47,13.71.63-.85-10,31-10.07,31-.27.83-.8.35-17.41,7.7,1-1-17.49,38.28-.32.69-.69.29-36.38,15-36.46,14.85.46-.33-11.53,12.71L129.06,330l-11.6,12.64C113.61,346.83,109.69,351,105.81,355.19Z" transform="translate(0 -115.73)"/><polygon class="cls-5" points="232.34 197.6 303.69 121.34 303.53 121.62 313.01 84.78 313.11 84.39 313.48 84.21 358.88 63.57 358.38 64.04 366.56 49.15 366.74 48.81 367.1 48.66 400.44 33.77 399.72 34.67 406.38 1.95 406.78 0 408.46 1.07 440.47 21.4 441.16 21.84 441.16 22.66 441.25 49.7 440.91 48.72 462.29 75.78 462.56 76.12 462.63 76.56 474.33 151.15 472.57 149.64 493.87 149.62 492.07 151.42 492.01 96.75 492.01 95.96 492.58 95.41 541.4 48.3 543.12 46.65 544.39 48.67 561.35 75.78 559.68 74.85 579.03 74.83 580.23 74.83 580.79 75.88 601.33 114.44 599.6 113.41 667.34 113.48 667.92 113.48 668.4 113.81 721.58 149.92 722 150.21 722.22 150.67 754.8 222.47 754.29 221.82 805.01 261.52 855.68 301.29 854.07 301.23 911.05 263.11 911.37 262.9 911.74 262.91 969.79 265.7 969.84 265.7 969.88 265.7 1119.34 286.95 969.63 267.51 969.71 267.52 911.64 265.19 912.33 265 855.6 303.5 854.78 304.06 853.99 303.45 803.06 264.03 752.16 224.55 751.83 224.29 751.65 223.9 718.91 152.17 719.55 152.92 666.28 116.93 667.34 117.25 599.6 117.33 598.42 117.33 597.87 116.29 577.28 77.76 579.03 78.81 559.68 78.79 558.59 78.79 558.01 77.86 541.1 50.72 544.09 51.09 495.16 98.09 495.73 96.75 495.67 151.42 495.67 153.22 493.87 153.22 472.57 153.19 471.05 153.19 470.82 151.69 459.29 77.08 459.63 77.87 438.42 50.68 438.08 50.24 438.08 49.7 438.17 22.66 438.86 23.92 406.99 3.38 409.06 2.5 402.18 35.18 402.05 35.82 401.46 36.08 368.01 50.74 368.55 50.25 360.27 65.08 360.1 65.4 359.77 65.54 314.19 85.78 314.67 85.22 304.79 121.95 304.74 122.11 304.63 122.23 232.34 197.6"/><path class="cls-5" d="M921.77,463.41l7.39-13.87,7.46-13.83.13-.25.3,0c12.39-1.13,24.77-2.33,37.16-3.39l37.17-3.21,37.17-3.19,37.19-3-.89.3,40.47-26.49L1165.87,370l.49-.31h.57l38.71.12c12.9.08,25.8.09,38.71.23h.7l.46.5,42.32,46.26,21,23.25,10.51,11.63,10.46,11.69-10.92-11.26-10.86-11.31-21.71-22.62-43.16-45.48,1.16.51c-12.91.14-25.81.15-38.71.23l-38.71.12,1.06-.31-40.5,26.44-40.58,26.34-.41.26-.47,0-37.21,2.7-37.22,2.56-37.23,2.53c-12.4.86-24.82,1.57-37.23,2.36l.43-.28-7.86,13.6Z" transform="translate(0 -115.73)"/><path class="cls-5" d="M695,249.86l19.8-10,19.82-9.95-.28.37,7-43,.1-.6.6-.15,30.24-7.87-.84.85,7.08-30.7.47-2,1.66,1.28,39.39,30.43-2.13.09,24.61-23.07.78-.73,1,.38,45,16.77-1.62.16L927,147.49l1.09-.69,1.06.76,36.33,26-1.1-.37,50.81,1.63.86,0,.54.65,13,15.87-1.42-.67,37.75.08h.71l.51.48L1086.68,210l19.53,18.73,39,37.54.22.21.1.27,17.12,47.38-.28-.39,33,28.95q16.53,14.46,33,29-16.86-14.07-33.64-28.23l-33.59-28.29-.19-.16-.08-.24-17.73-47.15.32.48L1104,231l-19.68-18.57-19.64-18.61,1.22.49-37.75.07h-.86l-.56-.68-13.1-15.81,1.4.68-50.82-1.43h-.6l-.5-.36-36.26-26.1,2.15.06L889.75,175.2l-.77.48-.85-.32-45-17,1.79-.35L820.2,181l-1,1-1.1-.87-39-30.89,2.13-.75L773.75,180l-.17.69-.67.17-30.35,7.46.7-.76-7.88,42.85,0,.26-.24.11-20,9.55Z" transform="translate(0 -115.73)"/></g><g id="Argentina_Details" data-name="Argentina Details"><polyline class="cls-6" points="269.4 185.34 328.62 165.75 349.73 113.61 372.21 106.45 379.36 71.72 439.66 49.7 439.66 22.66 407.73 2.22 400.95 34.92 367.55 49.7 359.33 64.56 313.83 85 304.16 121.79 232.35 197.6"/><polygon class="cls-6" points="535.11 166.24 521.4 181.06 493.86 151.42 493.86 96.75 530.54 61.44 535.11 166.24"/><polygon class="cls-6" points="586.8 214.35 559.21 251.57 565.35 301.8 523.46 255.93 529.59 235.21 565.35 206.61 565.35 126.89 594.99 156.53 586.8 214.35"/><polygon class="cls-6" points="907.68 152.29 913.97 186.16 890.3 239.46 872.94 160.62 890.3 126.89 872.94 86.02 840.24 86.02 829.25 54.57 843.77 41.05 854.54 68.64 904.62 75.79 913.97 136.42 907.68 152.29"/><polygon class="cls-6" points="1024.3 313.5 937.1 320.25 921.78 347.68 225.05 347.68 380.39 315.79 422.28 329.23 461.12 317.99 529.84 321.05 599.06 324.12 746.22 302.37 854.84 302.37 911.69 264.05 969.75 266.61 997.41 270.37 1024.3 313.5"/><polygon class="cls-6" points="709.43 174.82 695.03 203.53 624.16 181.06 624.16 131.06 667.33 115.36 709.43 174.82"/><polygon class="cls-6" points="1134.53 174.82 1134.53 246.46 1072.21 174.82 1047.68 190.25 1031.32 131.06 1063 152.29 1082.93 136.42 1111.95 188.76 1134.53 174.82"/><polygon class="cls-6" points="269.4 185.34 224.03 268.93 160.67 313.89 151.03 347.68 33.97 347.68 50.84 297.49 105.8 239.46 224.11 200.33 232.33 197.6 232.35 197.6 269.4 185.34"/></g></g></g></g></g></svg>