<svg xmlns="http://www.w3.org/2000/svg" viewBox="0 0 35.2 35.2"><defs><style>.cls-1{fill:#cdcdcd;}.cls-2{fill:none;stroke:#cdcdcd;stroke-linecap:round;stroke-linejoin:round;}</style></defs><title>Asset 5origin</title><g id="Layer_2" data-name="Layer 2"><g id="Premium_Contact" data-name="Premium Contact"><path class="cls-1" d="M17.58,10.81c2.31,0,4.62,0,6.93,0A1.89,1.89,0,0,1,26.67,13,1.3,1.3,0,0,1,26.14,14q-2.94,2.25-5.94,4.41a15.27,15.27,0,0,1-1.84,1.25,1.57,1.57,0,0,1-1.54,0A18.43,18.43,0,0,1,14.39,18q-2.7-1.92-5.31-4a1.73,1.73,0,0,1-.5-2,1.68,1.68,0,0,1,1.59-1.22h7.41Z"/><path class="cls-1" d="M17.57,24.41H10.36a1.71,1.71,0,0,1-1.85-1.87c0-2.27,0-4.53,0-6.8,0-.15-.07-.35.12-.44s.3.06.42.15l6.54,4.82a3.14,3.14,0,0,0,4.17-.12l6.3-4.67c.14-.1.27-.27.46-.18s.13.3.13.47v6.92a1.69,1.69,0,0,1-1.72,1.72C22.48,24.42,20,24.41,17.57,24.41Z"/><rect class="cls-2" x="0.5" y="0.5" width="34.2" height="34.2" rx="17.1"/></g></g></svg>