<svg xmlns="http://www.w3.org/2000/svg" viewBox="0 0 35.2 35.2"><defs><style>.cls-1{fill:#cdcdcd;}.cls-2{fill:none;stroke:#cdcdcd;stroke-linecap:round;stroke-linejoin:round;}</style></defs><title>Asset 6-origin</title><g id="Layer_2" data-name="Layer 2"><g id="Premium_Contact" data-name="Premium Contact"><path class="cls-1" d="M25.78,11.75a14.73,14.73,0,0,1-3.26,8.49A14.52,14.52,0,0,1,15.68,25a12.57,12.57,0,0,1-3.7.71c-.33,0-.65.06-1,.06a.74.74,0,0,1-.78-.59q-.41-1.67-.78-3.33A.74.74,0,0,1,9.88,21c1.17-.51,2.34-1,3.52-1.51a.81.81,0,0,1,1.08.33c.43.53.87,1,1.3,1.57a.3.3,0,0,0,.43.1,11.76,11.76,0,0,0,3.62-2.83,12.64,12.64,0,0,0,1.59-2.31c.14-.28.16-.45-.13-.66-.53-.39-1-.83-1.53-1.24a.8.8,0,0,1-.28-1c.49-1.16,1-2.32,1.49-3.48a.78.78,0,0,1,1-.48l2.84.65C25.69,10.31,25.79,10.45,25.78,11.75Z"/><rect class="cls-2" x="0.5" y="0.5" width="34.2" height="34.2" rx="17.1"/></g></g></svg>